<svg xmlns="http://www.w3.org/2000/svg" viewBox="50 15 704 135" fill="none" role="img" aria-label="macht·sinn"><defs><g/><clipPath id="432838968f"><path d="M 460.386719 88.339844 L 492.570312 88.339844 L 492.570312 120.523438 L 460.386719 120.523438 Z M 460.386719 88.339844 " clip-rule="nonzero"/></clipPath><clipPath id="2af922ba9e"><path d="M 476.480469 88.339844 C 467.59375 88.339844 460.386719 95.542969 460.386719 104.429688 C 460.386719 113.316406 467.59375 120.523438 476.480469 120.523438 C 485.367188 120.523438 492.570312 113.316406 492.570312 104.429688 C 492.570312 95.542969 485.367188 88.339844 476.480469 88.339844 Z M 476.480469 88.339844 " clip-rule="nonzero"/></clipPath><clipPath id="975a59e80f"><path d="M 0.386719 0.339844 L 32.570312 0.339844 L 32.570312 32.523438 L 0.386719 32.523438 Z M 0.386719 0.339844 " clip-rule="nonzero"/></clipPath><clipPath id="29c04ac1ee"><path d="M 16.480469 0.339844 C 7.59375 0.339844 0.386719 7.542969 0.386719 16.429688 C 0.386719 25.316406 7.59375 32.523438 16.480469 32.523438 C 25.367188 32.523438 32.570312 25.316406 32.570312 16.429688 C 32.570312 7.542969 25.367188 0.339844 16.480469 0.339844 Z M 16.480469 0.339844 " clip-rule="nonzero"/></clipPath><clipPath id="8ebb6e8f3e"><rect x="0" width="33" y="0" height="33"/></clipPath></defs><g fill="#ffffff" fill-opacity="1"><g transform="translate(45.575815, 143.430445)"><g><path d="M 8.640625 0 L 8.640625 -73.90625 L 34.140625 -73.90625 L 34.140625 -66.125 L 34.4375 -66.125 C 41.0625 -72.757812 48.117188 -76.078125 55.609375 -76.078125 C 60.992188 -76.078125 66.035156 -74.972656 70.734375 -72.765625 C 75.441406 -70.554688 79 -67.144531 81.40625 -62.53125 C 88.894531 -71.5625 97.054688 -76.078125 105.890625 -76.078125 C 113.773438 -76.078125 120.550781 -73.863281 126.21875 -69.4375 C 131.882812 -65.019531 134.71875 -58.109375 134.71875 -48.703125 L 134.71875 0 L 109.21875 0 L 109.21875 -41.78125 C 109.21875 -45.71875 108.132812 -49.003906 105.96875 -51.640625 C 103.8125 -54.285156 100.570312 -55.609375 96.25 -55.609375 C 92.5 -55.609375 89.640625 -54.476562 87.671875 -52.21875 C 85.703125 -49.96875 84.625 -47.257812 84.4375 -44.09375 L 84.4375 0 L 58.921875 0 L 58.921875 -41.78125 C 58.921875 -45.71875 57.835938 -49.003906 55.671875 -51.640625 C 53.515625 -54.285156 50.273438 -55.609375 45.953125 -55.609375 C 42.015625 -55.609375 39.0625 -54.382812 37.09375 -51.9375 C 35.125 -49.488281 34.140625 -46.582031 34.140625 -43.21875 L 34.140625 0 Z M 8.640625 0 "/></g></g></g><g fill="#ffffff" fill-opacity="1"><g transform="translate(173.952415, 143.430445)"><g><path d="M 13.6875 -9.140625 C 6.769531 -16.679688 3.3125 -25.925781 3.3125 -36.875 C 3.3125 -47.832031 6.769531 -57.101562 13.6875 -64.6875 C 20.601562 -72.28125 29.390625 -76.078125 40.046875 -76.078125 C 49.847656 -76.078125 57.921875 -73.003906 64.265625 -66.859375 L 64.265625 -73.90625 L 89.765625 -73.90625 L 89.765625 0 L 64.546875 0 L 64.546875 -8.359375 L 64.265625 -8.359375 C 57.921875 -1.347656 49.847656 2.15625 40.046875 2.15625 C 29.390625 2.15625 20.601562 -1.609375 13.6875 -9.140625 Z M 35.375 -49.40625 C 32.0625 -46.144531 30.40625 -41.96875 30.40625 -36.875 C 30.40625 -31.789062 31.988281 -27.640625 35.15625 -24.421875 C 38.320312 -21.203125 42.5 -19.59375 47.6875 -19.59375 C 52.6875 -19.59375 56.789062 -21.222656 60 -24.484375 C 63.21875 -27.753906 64.828125 -31.890625 64.828125 -36.890625 C 64.828125 -41.972656 63.171875 -46.144531 59.859375 -49.40625 C 56.546875 -52.675781 52.488281 -54.3125 47.6875 -54.3125 C 42.789062 -54.3125 38.6875 -52.675781 35.375 -49.40625 Z M 35.375 -49.40625 "/></g></g></g><g fill="#ffffff" fill-opacity="1"><g transform="translate(258.816244, 143.430445)"><g><path d="M 47.984375 -55.1875 C 43.179688 -55.1875 39.050781 -53.40625 35.59375 -49.84375 C 32.132812 -46.289062 30.40625 -42.019531 30.40625 -37.03125 C 30.40625 -31.9375 32.132812 -27.613281 35.59375 -24.0625 C 39.050781 -20.507812 43.179688 -18.734375 47.984375 -18.734375 C 50.285156 -18.734375 52.46875 -19.019531 54.53125 -19.59375 C 56.59375 -20.164062 58.109375 -20.742188 59.078125 -21.328125 L 60.375 -22.1875 L 69.015625 -4.46875 C 68.335938 -3.988281 67.398438 -3.382812 66.203125 -2.65625 C 65.003906 -1.9375 62.265625 -0.957031 57.984375 0.28125 C 53.710938 1.53125 49.128906 2.15625 44.234375 2.15625 C 33.378906 2.15625 23.84375 -1.660156 15.625 -9.296875 C 7.414062 -16.929688 3.3125 -26.078125 3.3125 -36.734375 C 3.3125 -47.492188 7.414062 -56.738281 15.625 -64.46875 C 23.84375 -72.207031 33.378906 -76.078125 44.234375 -76.078125 C 49.128906 -76.078125 53.640625 -75.5 57.765625 -74.34375 C 61.898438 -73.1875 64.832031 -72.035156 66.5625 -70.890625 L 69.015625 -69.15625 L 60.375 -51.71875 C 57.195312 -54.03125 53.066406 -55.1875 47.984375 -55.1875 Z M 47.984375 -55.1875 "/></g></g></g><g fill="#ffffff" fill-opacity="1"><g transform="translate(316.016329, 143.430445)"><g><path d="M 8.640625 0 L 8.640625 -123.90625 L 34.140625 -123.90625 L 34.140625 -66.125 L 34.4375 -66.125 C 41.0625 -72.757812 48.117188 -76.078125 55.609375 -76.078125 C 59.265625 -76.078125 62.890625 -75.59375 66.484375 -74.625 C 70.085938 -73.664062 73.546875 -72.175781 76.859375 -70.15625 C 80.179688 -68.144531 82.875 -65.289062 84.9375 -61.59375 C 87 -57.894531 88.03125 -53.597656 88.03125 -48.703125 L 88.03125 0 L 62.53125 0 L 62.53125 -41.78125 C 62.53125 -45.625 61.304688 -48.984375 58.859375 -51.859375 C 56.410156 -54.742188 53.21875 -56.1875 49.28125 -56.1875 C 45.4375 -56.1875 41.953125 -54.695312 38.828125 -51.71875 C 35.703125 -48.738281 34.140625 -45.425781 34.140625 -41.78125 L 34.140625 0 Z M 8.640625 0 "/></g></g></g><g fill="#ffffff" fill-opacity="1"><g transform="translate(397.710363, 143.430445)"><g><path d="M 12.96875 -73.90625 L 12.96875 -101.4375 L 38.46875 -101.4375 L 38.46875 -73.90625 L 54.03125 -73.90625 L 54.03125 -54.46875 L 38.46875 -54.46875 L 38.46875 -30.984375 C 38.46875 -24.160156 40.390625 -20.75 44.234375 -20.75 C 45.191406 -20.75 46.195312 -20.941406 47.25 -21.328125 C 48.3125 -21.710938 49.128906 -22.09375 49.703125 -22.46875 L 50.578125 -23.046875 L 56.90625 -2.453125 C 51.4375 0.617188 45.195312 2.15625 38.1875 2.15625 C 33.382812 2.15625 29.253906 1.316406 25.796875 -0.359375 C 22.335938 -2.035156 19.71875 -4.289062 17.9375 -7.125 C 16.15625 -9.957031 14.878906 -12.9375 14.109375 -16.0625 C 13.347656 -19.1875 12.96875 -22.523438 12.96875 -26.078125 L 12.96875 -54.46875 L 2.3125 -54.46875 L 2.3125 -73.90625 Z M 12.96875 -73.90625 "/></g></g></g><g fill="#ffffff" fill-opacity="1"><g transform="translate(441.083607, 143.430445)"><g/></g></g><g fill="#ffffff" fill-opacity="1"><g transform="translate(466.873817, 143.430445)"><g/></g></g><g fill="#ffffff" fill-opacity="1"><g transform="translate(492.669542, 143.430445)"><g><path d="M 40.78125 -76.078125 C 45 -76.078125 49.171875 -75.59375 53.296875 -74.625 C 57.429688 -73.664062 60.507812 -72.707031 62.53125 -71.75 L 65.5625 -70.3125 L 57.203125 -53.59375 C 51.429688 -56.664062 45.957031 -58.203125 40.78125 -58.203125 C 37.894531 -58.203125 35.847656 -57.890625 34.640625 -57.265625 C 33.441406 -56.640625 32.84375 -55.460938 32.84375 -53.734375 C 32.84375 -53.359375 32.890625 -52.976562 32.984375 -52.59375 C 33.085938 -52.207031 33.28125 -51.84375 33.5625 -51.5 C 33.851562 -51.164062 34.117188 -50.878906 34.359375 -50.640625 C 34.597656 -50.398438 35.003906 -50.132812 35.578125 -49.84375 C 36.160156 -49.5625 36.617188 -49.347656 36.953125 -49.203125 C 37.285156 -49.054688 37.835938 -48.835938 38.609375 -48.546875 C 39.378906 -48.265625 39.957031 -48.050781 40.34375 -47.90625 C 40.726562 -47.757812 41.375 -47.539062 42.28125 -47.25 C 43.195312 -46.96875 43.894531 -46.78125 44.375 -46.6875 C 47.351562 -45.820312 49.945312 -44.859375 52.15625 -43.796875 C 54.363281 -42.742188 56.691406 -41.300781 59.140625 -39.46875 C 61.585938 -37.644531 63.484375 -35.34375 64.828125 -32.5625 C 66.179688 -29.78125 66.859375 -26.609375 66.859375 -23.046875 C 66.859375 -6.242188 55.1875 2.15625 31.84375 2.15625 C 26.5625 2.15625 21.539062 1.34375 16.78125 -0.28125 C 12.03125 -1.914062 8.597656 -3.550781 6.484375 -5.1875 L 3.3125 -7.78125 L 13.6875 -25.21875 C 14.457031 -24.539062 15.46875 -23.742188 16.71875 -22.828125 C 17.96875 -21.921875 20.222656 -20.675781 23.484375 -19.09375 C 26.753906 -17.507812 29.585938 -16.71875 31.984375 -16.71875 C 37.265625 -16.71875 39.90625 -18.492188 39.90625 -22.046875 C 39.90625 -23.679688 39.234375 -24.953125 37.890625 -25.859375 C 36.546875 -26.773438 34.265625 -27.804688 31.046875 -28.953125 C 27.828125 -30.109375 25.304688 -31.164062 23.484375 -32.125 C 18.867188 -34.53125 15.21875 -37.242188 12.53125 -40.265625 C 9.84375 -43.296875 8.5 -47.304688 8.5 -52.296875 C 8.5 -59.785156 11.40625 -65.617188 17.21875 -69.796875 C 23.03125 -73.984375 30.882812 -76.078125 40.78125 -76.078125 Z M 40.78125 -76.078125 "/></g></g></g><g fill="#ffffff" fill-opacity="1"><g transform="translate(550.013708, 143.430445)"><g><path d="M 11.09375 -115.109375 C 14.070312 -118.085938 17.625 -119.578125 21.75 -119.578125 C 25.882812 -119.578125 29.441406 -118.085938 32.421875 -115.109375 C 35.398438 -112.140625 36.890625 -108.585938 36.890625 -104.453125 C 36.890625 -100.328125 35.398438 -96.773438 32.421875 -93.796875 C 29.441406 -90.816406 25.882812 -89.328125 21.75 -89.328125 C 17.625 -89.328125 14.070312 -90.816406 11.09375 -93.796875 C 8.113281 -96.773438 6.625 -100.328125 6.625 -104.453125 C 6.625 -108.585938 8.113281 -112.140625 11.09375 -115.109375 Z M 8.640625 -73.90625 L 8.640625 0 L 34.140625 0 L 34.140625 -73.90625 Z M 8.640625 -73.90625 "/></g></g></g><g fill="#ffffff" fill-opacity="1"><g transform="translate(579.982304, 143.430445)"><g><path d="M 8.640625 0 L 8.640625 -73.90625 L 34.140625 -73.90625 L 34.140625 -66.125 L 34.4375 -66.125 C 41.0625 -72.757812 48.117188 -76.078125 55.609375 -76.078125 C 59.265625 -76.078125 62.890625 -75.59375 66.484375 -74.625 C 70.085938 -73.664062 73.546875 -72.175781 76.859375 -70.15625 C 80.179688 -68.144531 82.875 -65.289062 84.9375 -61.59375 C 87 -57.894531 88.03125 -53.597656 88.03125 -48.703125 L 88.03125 0 L 62.53125 0 L 62.53125 -41.78125 C 62.53125 -45.625 61.304688 -48.984375 58.859375 -51.859375 C 56.410156 -54.742188 53.21875 -56.1875 49.28125 -56.1875 C 45.4375 -56.1875 41.953125 -54.695312 38.828125 -51.71875 C 35.703125 -48.738281 34.140625 -45.425781 34.140625 -41.78125 L 34.140625 0 Z M 8.640625 0 "/></g></g></g><g fill="#ffffff" fill-opacity="1"><g transform="translate(661.676337, 143.430445)"><g><path d="M 8.640625 0 L 8.640625 -73.90625 L 34.140625 -73.90625 L 34.140625 -66.125 L 34.4375 -66.125 C 41.0625 -72.757812 48.117188 -76.078125 55.609375 -76.078125 C 59.265625 -76.078125 62.890625 -75.59375 66.484375 -74.625 C 70.085938 -73.664062 73.546875 -72.175781 76.859375 -70.15625 C 80.179688 -68.144531 82.875 -65.289062 84.9375 -61.59375 C 87 -57.894531 88.03125 -53.597656 88.03125 -48.703125 L 88.03125 0 L 62.53125 0 L 62.53125 -41.78125 C 62.53125 -45.625 61.304688 -48.984375 58.859375 -51.859375 C 56.410156 -54.742188 53.21875 -56.1875 49.28125 -56.1875 C 45.4375 -56.1875 41.953125 -54.695312 38.828125 -51.71875 C 35.703125 -48.738281 34.140625 -45.425781 34.140625 -41.78125 L 34.140625 0 Z M 8.640625 0 "/></g></g></g><g clip-path="url(#432838968f)"><g clip-path="url(#2af922ba9e)"><g transform="matrix(1, 0, 0, 1, 460, 88)"><g clip-path="url(#8ebb6e8f3e)"><g clip-path="url(#975a59e80f)"><g clip-path="url(#29c04ac1ee)"><path fill="#0e7490" d="M 0.386719 0.339844 L 32.570312 0.339844 L 32.570312 32.523438 L 0.386719 32.523438 Z M 0.386719 0.339844 " fill-opacity="1" fill-rule="nonzero"/></g></g></g></g></g></g></svg>